<svg xmlns="http://www.w3.org/2000/svg" xmlns:xlink="http://www.w3.org/1999/xlink" fill="none" version="1.1" width="500" height="500" viewBox="0 0 500 500"><defs><clipPath id="master_svg0_1_0"><rect x="0" y="0" width="500" height="500" rx="0"/></clipPath></defs><g clip-path="url(#master_svg0_1_0)"><g><path d="M315.312,347.875L315.312,317.578L274.359,317.578L274.359,187.188L315.312,187.188L315.312,156.875L192.469,156.875L192.469,187.188L233.422,187.188L233.422,317.578L192.469,317.578L192.469,347.875L315.312,347.875Z" fill="#4EB88A" fill-opacity="1"/><path d="M118.828,347.875L169.328,156.875L125.922,156.875L103.2656,254.078L91.7969,309.125L89.625,309.125L78.4219,254.078L56.0469,156.875L10.45312,156.875L60.9531,347.875L118.828,347.875ZM414.891,350.875C462.656,350.875,487.781,324.672,487.781,288.938C487.781,258.922,470.031,240.922,439.453,235.469L419.531,231.922C400.969,228.656,393.328,222.922,393.328,209.828C393.328,194.828,402.609,187.188,420.891,187.188C438.094,187.188,452.281,194,462.391,205.188L485.594,179.26600000000002C472.219,163.7031,449.828,153.875,420.625,153.875C377.484,153.875,352.094,175.172,352.094,211.734C352.094,239.562,366.562,260.562,400.688,266.297L420.625,269.562C439.188,272.562,446.281,278.844,446.281,292.203C446.281,308.578,435.641,317.578,416.25,317.578C399.328,317.578,382.125,310.48400000000004,368.203,295.203L344.453,321.406C358.922,339.422,383.219,350.875,414.891,350.875Z" fill="#213547" fill-opacity="1"/></g></g></svg>